<svg width="64" height="64" viewBox="0 0 64 64" fill="none" xmlns="http://www.w3.org/2000/svg">
<path d="M64 56V8C64 3.58172 60.4183 0 56 0H8C3.58172 0 0 3.58172 0 8V56C0 60.4183 3.58172 64 8 64H56C60.4183 64 64 60.4183 64 56Z" fill="url(#paint0_linear_361_702)"/>
<path fill-rule="evenodd" clip-rule="evenodd" d="M19.9311 15C17.4775 15 15.6624 17.1483 15.7435 19.478C15.8215 21.716 15.7203 24.615 14.9906 26.9787C14.2588 29.3497 13.0214 30.8484 11 31.041V33.2246C13.0215 33.4172 14.2588 34.9159 14.9906 37.2869C15.7203 39.6507 15.8215 42.5496 15.7436 44.7877C15.6624 47.1173 17.4775 49.2656 19.9311 49.2656H45.072C47.5256 49.2656 49.3407 47.1173 49.2596 44.7877C49.1817 42.5496 49.2828 39.6507 50.0124 37.2869C50.7443 34.9159 51.9786 33.4172 54 33.2246V31.041C51.9786 30.8484 50.7443 29.3497 50.0124 26.9787C49.2828 24.615 49.1817 21.716 49.2596 19.478C49.3407 17.1483 47.5256 15 45.072 15H19.9311ZM39.7988 36.0884C39.7988 39.2964 37.4051 41.2413 33.4329 41.2413H25.9413V23.0167H33.3941C36.7065 23.0167 38.8802 24.8102 38.8802 27.5634C38.8802 29.4957 37.4181 31.226 35.5549 31.5291V31.6301C38.0909 31.908 39.7988 33.6635 39.7988 36.0884ZM32.6955 25.3279H28.8396V30.7713H32.0873C34.5975 30.7713 35.9818 29.761 35.9818 27.9549C35.9818 26.2625 34.7915 25.3279 32.6955 25.3279ZM28.8396 32.931V38.9301H32.8377C35.4514 38.9301 36.8358 37.8818 36.8358 35.9116C36.8358 33.9414 35.4125 32.931 32.6695 32.931H28.8396Z" fill="white"/>
<defs>
<linearGradient id="paint0_linear_361_702" x1="0" y1="0" x2="74.5652" y2="47.369" gradientUnits="userSpaceOnUse">
<stop stop-color="#7758F9"/>
<stop offset="1" stop-color="#4F2ED2"/>
</linearGradient>
</defs>
</svg>
