<svg width="153" height="32" viewBox="0 0 153 32" fill="none" xmlns="http://www.w3.org/2000/svg">
<path d="M25.4135 31.9635L0.86223 24.4092C0.349575 24.2514 0 23.7779 0 23.2416V8.75839C0 8.22212 0.349778 7.74855 0.86223 7.59077L25.4135 0.0365362C25.9371 -0.124508 26.4673 0.267007 26.4673 0.814884V31.1849C26.4675 31.733 25.9373 32.1245 25.4135 31.9635Z" fill="url(#paint0_linear_361_791)"/>
<path d="M15.1091 31.6989L0.675329 24.482C0.261418 24.2751 0 23.8521 0 23.3893V8.61146C0 8.14869 0.261418 7.72582 0.675329 7.51876L15.1091 0.301891C15.6506 0.0311081 16.2877 0.424864 16.2877 1.03036V30.9704C16.2877 31.5759 15.6506 31.9696 15.1091 31.6989Z" fill="url(#paint1_linear_361_791)"/>
<path d="M16.2877 29.1537L0.86223 24.4075C0.349575 24.2497 0 23.7761 0 23.2399V8.75663C0 8.22036 0.349778 7.74679 0.86223 7.58901L16.2877 2.84277V29.1537Z" fill="url(#paint2_linear_361_791)"/>
<path d="M56.7752 19.2366C57.4963 21.0272 59.3798 21.8182 61.3567 21.8182C63.287 21.8182 65.1012 21.1439 65.1012 19.3762C65.1012 17.8411 63.4965 17.2134 61.3337 16.9809C58.008 16.5853 54.9383 15.7019 54.9383 12.0508C54.9383 8.70168 58.2405 7.32965 61.2409 7.30664C63.9061 7.30664 66.674 8.10331 67.8152 10.9408L65.1943 11.7949C64.636 10.8649 63.1013 9.98108 61.3337 9.98108C59.0544 9.98108 57.9613 10.9343 57.9613 12.1439C57.9613 13.5625 59.6359 13.9577 61.5894 14.1902C64.985 14.609 68.1479 15.4928 68.1479 19.3764C68.1479 23.0045 64.9382 24.5626 61.3105 24.5626C57.8263 24.5626 55.1845 23.4396 54.0537 20.124L56.7752 19.2366Z" fill="#190F1E"/>
<path d="M50.259 24.1426H53.5844L47.1544 7.86328H42.9102L36.4805 24.1426H39.8058L40.9341 21.106L48.2506 18.738L50.259 24.1426ZM42.1425 17.8542L44.5846 11.2821H45.4802L47.302 16.1847L42.1425 17.8542Z" fill="#190F1E"/>
<path d="M83.0491 24.1426H86.3744L79.9444 7.86328H75.7003L69.2705 24.1426H72.5958L73.7242 21.106L81.0406 18.738L83.0491 24.1426ZM74.9325 17.8542L77.3747 11.2821H78.2703L80.092 16.1847L74.9325 17.8542Z" fill="#190F1E"/>
<path d="M95.6128 7.83887C93.0551 7.83887 90.4969 7.86228 87.9385 7.86228V24.1416H91.0085V18.7903L92.7293 19.351H95.6128C103.59 19.3508 103.566 7.83887 95.6128 7.83887ZM95.6128 16.5371H91.0085V10.7696H95.6128C99.5198 10.7696 99.5431 16.5371 95.6128 16.5371Z" fill="#190F1E"/>
<path d="M143.369 10.8477H152.002V7.89551H140.295V24.1425H143.369V18.116H151.533V15.2858H145.08L143.369 15.8356V10.8477Z" fill="#190F1E"/>
<path d="M129.646 7.86328H123.251V24.1426H129.646C135.344 24.1426 137.856 19.9797 137.786 15.8636C137.716 11.8403 135.227 7.86328 129.646 7.86328ZM129.646 21.1891H128.018L126.297 21.7498V10.7706H129.646C133.181 10.7706 134.669 13.3052 134.739 15.8402C134.809 18.4914 133.344 21.1891 129.646 21.1891Z" fill="#190F1E"/>
<path d="M115.412 7.84082C112.854 7.84082 110.296 7.86423 107.737 7.86423V24.1436H110.807V18.7921L112.528 19.3528H115.412C123.389 19.3528 123.365 7.84082 115.412 7.84082ZM115.412 16.5389H110.807V10.7714H115.412C119.319 10.7714 119.342 16.5389 115.412 16.5389Z" fill="#190F1E"/>
<defs>
<linearGradient id="paint0_linear_361_791" x1="3.89376" y1="16" x2="26.8377" y2="16" gradientUnits="userSpaceOnUse">
<stop stop-color="#4B35EC"/>
<stop offset="1" stop-color="#7758F9"/>
</linearGradient>
<linearGradient id="paint1_linear_361_791" x1="-6.10788e-05" y1="16.0005" x2="16.2877" y2="16.0005" gradientUnits="userSpaceOnUse">
<stop stop-color="#2A97CE"/>
<stop offset="1" stop-color="#25DFEB"/>
</linearGradient>
<linearGradient id="paint2_linear_361_791" x1="0.000111729" y1="15.9999" x2="16.2878" y2="15.9999" gradientUnits="userSpaceOnUse">
<stop stop-color="#278BDD"/>
<stop offset="1" stop-color="#26A6E7"/>
</linearGradient>
</defs>
</svg>
