<svg width="64" height="64" viewBox="0 0 64 64" fill="none" xmlns="http://www.w3.org/2000/svg">
<path d="M64 56V8C64 3.58172 60.4183 0 56 0H8C3.58172 0 0 3.58172 0 8V56C0 60.4183 3.58172 64 8 64H56C60.4183 64 64 60.4183 64 56Z" fill="url(#paint0_linear_361_642)"/>
<path d="M49.2946 25.9601C49.214 24.2001 49.4559 22.6401 48.6497 21.3201C46.7148 18.0401 41.8777 16.1201 32.2033 16.1201V16.4001H32.0017H32.2033V16.1201C22.5289 16.1201 17.4498 18.0401 15.5149 21.3601C14.749 22.7201 14.8296 24.2401 14.7087 26.0001C14.6281 27.4001 13.9831 28.8801 14.2653 30.4801C14.5878 32.5601 14.7087 34.6401 15.0312 36.5601C15.2731 38.1201 17.4498 39.4401 17.6513 40.9201C18.2157 45.0001 22.4886 46.8801 32.163 46.8801V47.2001H31.9211H31.9614H32.2033V46.8801C41.8777 46.8801 45.9893 45.0001 46.5132 40.9201C46.7148 39.4001 48.7303 38.1201 48.9722 36.5601C49.2946 34.6401 49.4156 32.5601 49.738 30.4801C50.0202 28.8801 49.3753 27.3601 49.2946 25.9601Z" fill="white"/>
<path d="M32.0416 27.3994C33.7749 27.4394 34.9842 28.5194 36.1129 29.5194C37.4431 30.6794 39.7005 31.4794 40.6276 32.4794C41.5547 33.4794 42.764 34.4794 43.2074 36.0394C43.6509 37.5994 43.7718 39.5994 43.7718 40.1194C43.7718 40.6394 44.054 40.5194 44.8602 40.1194C46.7546 39.1994 48.8507 36.7194 48.8507 36.7194C48.6088 38.2794 46.553 39.6794 46.3515 41.1594C45.8679 45.2394 41.8772 47.1994 32.0012 47.1994H31.9609H32.2028" fill="#DFDFDF"/>
<path d="M38.41 24.2811C38.7728 25.5211 40.0627 29.7211 37.5635 28.3211C37.5635 28.3211 38.6115 28.9211 39.2565 31.2011C39.9418 33.4811 41.5945 33.7611 41.5945 33.7611C41.5945 33.7611 44.2953 34.2811 46.3108 32.5611C48.0039 31.1211 48.286 28.5611 47.5605 26.6011C46.8349 24.6811 45.5449 24.0811 43.6503 23.6811C41.7557 23.2411 37.9666 22.8811 38.41 24.2811Z" fill="#DFDFDF"/>
<path d="M43.2065 32.3593C45.1656 32.3593 46.7538 30.7834 46.7538 28.8393C46.7538 26.8953 45.1656 25.3193 43.2065 25.3193C41.2474 25.3193 39.6592 26.8953 39.6592 28.8393C39.6592 30.7834 41.2474 32.3593 43.2065 32.3593Z" fill="#858585"/>
<path d="M42.2787 28.1994C42.7908 28.1994 43.2058 27.7875 43.2058 27.2794C43.2058 26.7713 42.7908 26.3594 42.2787 26.3594C41.7666 26.3594 41.3516 26.7713 41.3516 27.2794C41.3516 27.7875 41.7666 28.1994 42.2787 28.1994Z" fill="#DFDFDF"/>
<path d="M37.8059 28.6807C37.8059 28.6807 40.9904 30.8407 42.7237 32.9607C44.457 35.0807 44.4167 35.4807 44.4167 35.4807L43.1671 36.0407C43.1671 36.0407 41.3935 32.7207 39.2167 31.4807C36.9997 30.2407 36.7578 29.2007 36.7578 29.2007L37.8059 28.6807Z" fill="white"/>
<path d="M32.1618 27.3994C30.4285 27.4394 29.1385 28.5194 27.9695 29.5194C26.6393 30.6794 24.3013 31.4794 23.3742 32.4794C22.4471 33.4794 21.1974 34.4794 20.754 36.0394C20.3106 37.5994 20.1494 39.5994 20.1494 40.1194C20.1494 40.6394 20.23 40.6794 19.061 40.1194C17.1664 39.2394 15.0703 36.7194 15.0703 36.7194C15.3122 38.2794 17.368 39.6794 17.5695 41.1594C18.1339 45.2394 22.1246 47.1994 32.0005 47.1994H32.0409H32.2021" fill="#DFDFDF"/>
<path d="M41.5127 34.1606C39.5778 31.8006 36.4739 29.6006 32.1607 29.6006H32.1204C27.8072 29.6006 24.7033 31.8006 22.7685 34.1606C20.753 36.6006 20.9142 37.5606 20.9142 39.8806C20.9142 48.2806 23.8971 45.8806 25.8723 46.9206C27.8878 47.9206 29.984 47.6006 32.1204 47.6006H32.1607C34.3375 47.6006 36.3933 47.8806 38.4088 46.8806C40.384 45.8806 43.3669 48.3606 43.3669 39.9606C43.4072 37.6406 43.5282 36.6006 41.5127 34.1606Z" fill="#B8B8B8"/>
<path d="M31.9608 31.6807C31.9608 31.6807 31.6786 35.5607 31.1143 36.3207L32.1623 36.0807L31.9608 31.6807Z" fill="#DFDFDF"/>
<path d="M32.2416 31.6807C32.2416 31.6807 32.5238 35.5607 33.0881 36.3207L32.04 36.0807L32.2416 31.6807Z" fill="#DFDFDF"/>
<path d="M28.8561 30.7593C28.453 29.8393 29.9042 28.3593 32.2019 28.3193C34.4996 28.3193 35.9507 29.7993 35.5476 30.7593C35.1445 31.7193 33.6934 31.9993 32.2019 32.0393C30.7507 31.9993 29.2592 31.7193 28.8561 30.7593Z" fill="#B8B8B8"/>
<path d="M32.2011 31.6806C32.2011 31.5206 33.5716 31.4806 34.2972 31.0006C34.2972 31.0006 32.8058 31.4806 32.4833 31.2806C32.1608 31.1206 32.0802 30.6406 32.0802 30.6406C32.0802 30.6406 31.9592 31.1206 31.7174 31.2806C31.4352 31.4406 29.7422 31.0006 29.7422 31.0006C29.7422 31.0006 31.9996 31.5606 31.9996 31.6806C31.9996 31.8006 31.9592 32.2006 31.9592 32.4806C31.9592 33.4806 31.9592 35.9606 32.1205 36.1606C32.3623 36.5206 32.2817 33.4806 32.2817 32.4806C32.2414 32.1606 32.2414 31.8406 32.2011 31.6806Z" fill="#858585"/>
<path d="M32.2832 37.0393C32.9685 37.0393 34.1778 37.5193 35.2662 38.2793C34.2181 37.1193 32.9685 36.3193 32.2832 36.3193C31.5577 36.3193 30.0259 37.1993 28.9375 38.4793C30.0662 37.5993 31.5173 37.0393 32.2832 37.0393Z" fill="#858585"/>
<path d="M31.9993 44.1209C30.4676 44.1209 28.9761 43.6409 27.6055 43.2809C27.3234 43.2009 27.0412 43.4009 26.759 43.3209C24.2195 42.5209 22.1637 41.1609 20.9141 39.4409V39.8409C20.9141 48.2409 23.897 45.8809 25.8722 46.8809C27.8877 47.8809 29.9838 47.5609 32.1203 47.5609H32.1606C34.3373 47.5609 36.3931 47.8409 38.4086 46.8409C40.3838 45.8409 43.3668 48.2809 43.3668 39.8809C43.3668 39.5609 43.3668 39.2409 43.4071 38.9609C42.2381 40.8409 40.1017 42.3209 37.4412 43.2009C37.1993 43.2809 36.635 43.0809 36.3931 43.1209C34.942 43.6009 33.652 44.1209 31.9993 44.1209Z" fill="#DFDFDF"/>
<path d="M28.1715 39.6006C28.1715 39.6006 27.1637 42.6006 27.849 43.9206L26.9219 43.5206C26.9219 43.5206 27.6071 40.4806 28.1715 39.6006Z" fill="#DFDFDF"/>
<path d="M36.1523 39.6006C36.1523 39.6006 37.1601 42.6006 36.4748 43.9206L37.402 43.5206C37.402 43.5206 36.6764 40.4806 36.1523 39.6006Z" fill="#DFDFDF"/>
<path d="M25.5916 24.2811C25.2288 25.5211 23.9389 29.7211 26.4381 28.3211C26.4381 28.3211 25.39 28.9211 24.7451 31.2011C24.1001 33.4811 22.4071 33.7611 22.4071 33.7611C22.4071 33.7611 19.7063 34.2811 17.6908 32.5611C15.9978 31.1211 15.7156 28.5611 16.4412 26.6011C17.1668 24.6411 18.4567 24.0811 20.3513 23.6811C22.2458 23.2411 25.9947 22.8811 25.5916 24.2811Z" fill="#DFDFDF"/>
<path d="M32.1593 36.32C33.2476 36.32 36.6337 38.64 36.674 41.48C36.674 41.44 36.674 41.4 36.674 41.32C36.674 38.36 33.9329 36 32.1593 36C30.3856 36 27.6445 38.4 27.6445 41.32V41.48C27.6848 38.64 31.0709 36.32 32.1593 36.32Z" fill="#858585"/>
<path d="M33.0409 30.7808C33.2134 30.7367 33.2855 30.4408 33.2021 30.1199C33.1188 29.799 32.9114 29.5747 32.7389 29.6188C32.5665 29.6629 32.4943 29.9589 32.5776 30.2797C32.661 30.6006 32.8684 30.8249 33.0409 30.7808Z" fill="#858585"/>
<path d="M30.9673 30.7761C31.1374 30.8284 31.3555 30.6143 31.4544 30.2978C31.5534 29.9813 31.4957 29.6823 31.3256 29.6299C31.1555 29.5776 30.9374 29.7917 30.8384 30.1082C30.7395 30.4247 30.7972 30.7237 30.9673 30.7761Z" fill="#858585"/>
<path d="M20.9965 32.3593C22.9556 32.3593 24.5438 30.7834 24.5438 28.8393C24.5438 26.8953 22.9556 25.3193 20.9965 25.3193C19.0374 25.3193 17.4492 26.8953 17.4492 28.8393C17.4492 30.7834 19.0374 32.3593 20.9965 32.3593Z" fill="#858585"/>
<path d="M21.9232 28.1994C22.4352 28.1994 22.8504 27.7875 22.8504 27.2794C22.8504 26.7713 22.4352 26.3594 21.9232 26.3594C21.4112 26.3594 20.9961 26.7713 20.9961 27.2794C20.9961 27.7875 21.4112 28.1994 21.9232 28.1994Z" fill="#DFDFDF"/>
<path d="M33.2091 28.8815C33.2091 28.8415 32.2819 29.2815 32.0401 29.3215C31.7982 29.2815 30.8711 28.8415 30.8711 28.8815H32.0401H33.2091Z" fill="#858585"/>
<path d="M26.1549 28.6807C26.1549 28.6807 22.9704 30.8407 21.237 32.9607C19.5037 35.0807 19.544 35.4807 19.544 35.4807L20.7936 36.0407C20.7936 36.0407 22.5673 32.7207 24.744 31.4807C26.9208 30.2407 27.2029 29.2007 27.2029 29.2007L26.1549 28.6807Z" fill="white"/>
<path d="M19.1828 22.2803C19.1828 22.2803 18.0944 25.2403 15.6758 26.4803C15.6758 26.4803 19.4649 26.0403 19.1828 22.2803Z" fill="#DFDFDF"/>
<path d="M44.6195 22.2803C44.6195 22.2803 45.7079 25.2403 48.1265 26.4803C48.1265 26.4803 44.3373 26.0403 44.6195 22.2803Z" fill="#DFDFDF"/>
<path d="M37.7256 27.8012C37.7256 27.8012 35.3473 25.3212 32.1628 25.2412C32.1225 25.2412 32.2435 25.2412 32.2031 25.2412C32.1628 25.2412 32.2435 25.2412 32.2435 25.2412C29.0186 25.3212 26.6807 27.8012 26.6807 27.8012C29.4621 25.8812 31.8404 25.9212 32.2435 25.9212C32.2031 25.9212 34.9442 25.8812 37.7256 27.8012Z" fill="#DFDFDF"/>
<path d="M34.9434 22.5999C34.9434 22.5999 33.7341 20.9199 32.1217 20.8799H32.162H32.2023C30.993 20.9199 29.4209 22.5999 29.4209 22.5999C30.7914 21.2799 32.2023 21.3199 32.2023 21.3199C32.2023 21.3199 33.5325 21.2799 34.9434 22.5999Z" fill="#DFDFDF"/>
<path d="M20.9944 34.8795C20.9944 34.8795 19.0998 35.7995 17.7293 35.2395H17.689C16.4797 34.5595 15.875 32.5195 15.875 32.5195C15.875 32.5195 17.0843 36.1195 20.9944 34.8795Z" fill="#DFDFDF"/>
<path d="M43.085 34.8795C43.085 34.8795 44.9795 35.7995 46.3501 35.2395C47.9625 34.5595 48.2043 32.5195 48.2043 32.5195C48.2043 32.5195 46.995 36.1195 43.085 34.8795Z" fill="#DFDFDF"/>
<path d="M23.1729 22.0809C24.2209 21.8809 25.9542 21.8409 27.3248 22.2809C29.0581 22.8809 27.6473 25.0809 28.0101 25.2009C28.3728 25.3209 28.8566 23.6809 32.0814 23.8409C35.3465 24.0009 35.7093 25.4409 36.1527 25.2009C36.5961 24.9609 35.7093 21.2009 40.5868 22.0809C40.5868 22.0809 35.4674 20.7209 35.7093 24.4009C35.7093 24.4009 32.7666 22.1609 28.655 24.1609C28.6953 24.1609 29.7434 20.7209 23.1729 22.0809Z" fill="#DFDFDF"/>
<path d="M41.0312 22.0791C41.1119 22.0791 41.1522 22.1191 41.1925 22.1191C41.2328 22.1191 41.1522 22.0791 41.0312 22.0791Z" fill="#DFDFDF"/>
<path d="M21.7617 17.1602C21.7617 17.1602 17.4082 22.6001 16.7632 24.6801C16.1183 26.8001 15.6345 35.4801 15.0702 36.7201L13.0547 28.1601L16.7632 19.2402L21.7617 17.1602Z" fill="#DFDFDF"/>
<path d="M42.2383 17.1602C42.2383 17.1602 46.5916 22.6001 47.2366 24.6801C47.8815 26.8001 48.3653 35.4801 48.9296 36.7201L50.9451 28.1601L47.2366 19.2402L42.2383 17.1602Z" fill="#DFDFDF"/>
<path d="M42.0375 17.1599C42.0375 17.1599 46.7134 21.0399 48.084 25.5199C49.4545 29.9999 48.8902 35.4399 49.9382 36.1199C51.4297 37.0799 53.1227 31.3599 53.6871 30.7599C54.5739 29.7999 57.5165 27.3599 57.7181 26.9199C57.9196 26.4799 51.7522 19.7999 49.0514 18.4799C45.7863 16.9599 41.7553 16.8399 42.0375 17.1599Z" fill="#B8B8B8"/>
<path d="M46.0273 19.5586C46.0273 19.5586 51.5499 26.5586 51.4693 35.2786L53.6863 30.7986C53.646 30.7986 51.7111 25.0786 46.0273 19.5586Z" fill="#DFDFDF"/>
<path d="M21.7626 17.1599C21.7626 17.1599 17.0866 21.0399 15.7161 25.5199C14.3455 29.9999 14.9099 35.4399 13.8618 36.1199C12.3703 37.0799 10.6773 31.3599 10.113 30.7599C9.22616 29.7999 6.28352 27.3599 6.08197 26.9199C5.88042 26.4799 12.0478 19.7999 14.7486 18.4799C18.0137 16.9599 22.0447 16.8399 21.7626 17.1599Z" fill="#B8B8B8"/>
<path d="M17.7709 19.5586C17.7709 19.5586 12.2485 26.5586 12.3291 35.2786L10.1523 30.7986C10.1523 30.7986 12.0872 25.0786 17.7709 19.5586Z" fill="#DFDFDF"/>
<path d="M14.7881 35.4387C14.7881 35.4387 15.1912 37.5987 15.8361 38.2787C16.4811 38.9587 16.0377 37.7587 16.0377 37.7587C16.0377 37.7587 15.3524 37.3987 15.4734 34.6387C15.5943 31.8787 14.7881 35.4387 14.7881 35.4387Z" fill="#DFDFDF"/>
<path d="M49.1717 35.4387C49.1717 35.4387 48.7686 37.5987 48.1236 38.2787C47.4786 38.9587 47.9221 37.7587 47.9221 37.7587C47.9221 37.7587 48.6073 37.3987 48.4864 34.6387C48.3655 31.8787 49.1717 35.4387 49.1717 35.4387Z" fill="#DFDFDF"/>
<path d="M27.967 34.1205C28.1451 34.1205 28.2895 33.9772 28.2895 33.8005C28.2895 33.6237 28.1451 33.4805 27.967 33.4805C27.7889 33.4805 27.6445 33.6237 27.6445 33.8005C27.6445 33.9772 27.7889 34.1205 27.967 34.1205Z" fill="#DFDFDF"/>
<path d="M26.1145 36.0394C26.2926 36.0394 26.437 35.8961 26.437 35.7194C26.437 35.5427 26.2926 35.3994 26.1145 35.3994C25.9364 35.3994 25.792 35.5427 25.792 35.7194C25.792 35.8961 25.9364 36.0394 26.1145 36.0394Z" fill="#DFDFDF"/>
<path d="M25.51 34.1205C25.6881 34.1205 25.8325 33.9772 25.8325 33.8005C25.8325 33.6237 25.6881 33.4805 25.51 33.4805C25.3319 33.4805 25.1875 33.6237 25.1875 33.8005C25.1875 33.9772 25.3319 34.1205 25.51 34.1205Z" fill="#DFDFDF"/>
<path d="M35.8293 34.1205C36.0074 34.1205 36.1518 33.9772 36.1518 33.8005C36.1518 33.6237 36.0074 33.4805 35.8293 33.4805C35.6512 33.4805 35.5068 33.6237 35.5068 33.8005C35.5068 33.9772 35.6512 34.1205 35.8293 34.1205Z" fill="#DFDFDF"/>
<path d="M37.6828 36.0394C37.8609 36.0394 38.0053 35.8961 38.0053 35.7194C38.0053 35.5427 37.8609 35.3994 37.6828 35.3994C37.5047 35.3994 37.3604 35.5427 37.3604 35.7194C37.3604 35.8961 37.5047 36.0394 37.6828 36.0394Z" fill="#DFDFDF"/>
<path d="M38.2883 34.1205C38.4664 34.1205 38.6108 33.9772 38.6108 33.8005C38.6108 33.6237 38.4664 33.4805 38.2883 33.4805C38.1102 33.4805 37.9658 33.6237 37.9658 33.8005C37.9658 33.9772 38.1102 34.1205 38.2883 34.1205Z" fill="#DFDFDF"/>
<defs>
<linearGradient id="paint0_linear_361_642" x1="0" y1="0" x2="74.5652" y2="47.369" gradientUnits="userSpaceOnUse">
<stop stop-color="#7758F9"/>
<stop offset="1" stop-color="#4F2ED2"/>
</linearGradient>
</defs>
</svg>
