<svg width="64" height="64" viewBox="0 0 64 64" fill="none" xmlns="http://www.w3.org/2000/svg">
<path d="M64 56V8C64 3.58172 60.4183 0 56 0H8C3.58172 0 0 3.58172 0 8V56C0 60.4183 3.58172 64 8 64H56C60.4183 64 64 60.4183 64 56Z" fill="url(#paint0_linear_361_637)"/>
<path d="M49.6096 33.5453C48.0048 33.5536 46.6101 33.9345 45.4422 34.4976C45.0137 33.6612 44.5852 32.9159 44.5095 32.3694C44.4255 31.7317 44.3247 31.3425 44.4255 30.5807C44.5263 29.8188 44.9801 28.734 44.9717 28.6512C44.9633 28.5684 44.8708 28.1792 43.9466 28.1709C43.0224 28.1626 42.2242 28.3448 42.1318 28.585C42.0393 28.8251 41.8629 29.3717 41.7453 29.9348C41.5856 30.7629 39.8968 33.7192 38.9306 35.2677C38.6197 34.6632 38.3508 34.1332 38.292 33.7109C38.208 33.0733 38.1072 32.6841 38.208 31.9222C38.3088 31.1604 38.7625 30.0755 38.7541 29.9927C38.7457 29.9099 38.6533 29.5207 37.7291 29.5124C36.8048 29.5042 36.0066 29.6863 35.9142 29.9265C35.8218 30.1666 35.721 30.7297 35.5277 31.2763C35.3345 31.8228 33.0911 36.7583 32.503 38.0336C32.2005 38.6878 31.94 39.2095 31.7552 39.5655C31.5703 39.9216 31.7468 39.5904 31.7216 39.6318C31.5619 39.9382 31.4695 40.1038 31.4695 40.1038C31.4695 40.1038 31.4695 40.1038 31.4695 40.1121C31.3435 40.3357 31.209 40.5427 31.1418 40.5427C31.0914 40.5427 30.999 39.9465 31.1586 39.1349C31.4947 37.4208 32.2929 34.7543 32.2845 34.6632C32.2845 34.6135 32.4358 34.1498 31.7636 33.9096C31.1082 33.6695 30.873 34.067 30.8142 34.067C30.7553 34.067 30.7133 34.2078 30.7133 34.2078C30.7133 34.2078 31.4443 31.21 29.3186 31.21C27.9911 31.21 26.1594 32.6426 25.252 33.9345C24.6806 34.2409 23.4623 34.8951 22.16 35.599C21.6643 35.8722 21.1518 36.1455 20.6728 36.4022C20.6392 36.3691 20.6056 36.3277 20.572 36.2946C18.001 33.5867 13.2454 31.6738 13.4471 28.0384C13.5227 26.7135 13.9848 23.2355 22.5801 19.0122C29.6547 15.5756 35.2841 16.5279 36.2587 18.6395C37.6534 21.6538 33.2424 27.2517 25.9325 28.0633C23.1431 28.3697 21.6811 27.3097 21.3114 26.9122C20.9249 26.4982 20.8661 26.4733 20.7233 26.5561C20.488 26.6803 20.6392 27.053 20.7233 27.2683C20.9417 27.8314 21.8407 28.8251 23.3615 29.3137C24.7058 29.7443 27.9742 29.9845 31.9316 28.4773C36.3595 26.788 39.8212 22.0927 38.8045 18.1592C37.7879 14.1678 31.0662 12.8511 24.7058 15.0787C20.9249 16.4037 16.8247 18.4905 13.8756 21.2066C10.3719 24.4362 9.81736 27.2435 10.0442 28.4194C10.8592 32.593 16.6987 35.3091 19.0344 37.3214C18.9168 37.3876 18.8076 37.4456 18.7152 37.4953C17.5473 38.0667 13.0942 40.3605 11.9851 42.7868C10.7248 45.5361 12.1867 47.507 13.153 47.772C16.1525 48.5918 19.2361 47.1178 20.8913 44.6832C22.5465 42.2486 22.3449 39.0852 21.5803 37.6361C21.5719 37.6195 21.5635 37.6029 21.5467 37.5864C21.8491 37.4125 22.16 37.2303 22.4625 37.0564C23.059 36.7086 23.6472 36.3856 24.1513 36.1207C23.8656 36.8908 23.6556 37.81 23.5548 39.1349C23.4287 40.6917 24.0757 42.7123 24.9243 43.5073C25.3024 43.8551 25.7477 43.8634 26.0334 43.8634C27.0248 43.8634 27.4701 43.0518 27.9658 42.0912C28.5708 40.9153 29.1169 39.549 29.1169 39.549C29.1169 39.549 28.4364 43.2423 30.2848 43.2423C30.957 43.2423 31.6376 42.3811 31.94 41.9422V41.9505C31.94 41.9505 31.9568 41.9256 31.9904 41.8676C32.0577 41.76 32.0997 41.6937 32.0997 41.6937C32.0997 41.6937 32.0997 41.6855 32.0997 41.6772C32.3685 41.2134 32.9735 40.1618 33.8725 38.4145C35.032 36.1621 36.1495 33.3465 36.1495 33.3465C36.1495 33.3465 36.2503 34.0338 36.5948 35.1766C36.7964 35.8474 37.2165 36.5844 37.5526 37.2965C37.2838 37.6692 37.1157 37.8762 37.1157 37.8762C37.1157 37.8762 37.1157 37.8762 37.1241 37.8845C36.9057 38.1661 36.6704 38.4724 36.4099 38.7706C35.4941 39.8471 34.4018 41.081 34.2506 41.437C34.0742 41.8594 34.1162 42.1658 34.4523 42.4142C34.6959 42.5964 35.1328 42.6212 35.5781 42.5964C36.4015 42.5384 36.9813 42.3397 37.2669 42.2154C37.7123 42.0581 38.2332 41.818 38.7205 41.4619C39.6195 40.8077 40.1657 39.8719 40.1153 38.6381C40.09 37.959 39.8632 37.28 39.5859 36.6424C39.6699 36.5264 39.7456 36.4105 39.8296 36.2946C41.2495 34.2492 42.3502 32.005 42.3502 32.005C42.3502 32.005 42.451 32.6923 42.7955 33.8351C42.9636 34.4148 43.308 35.0441 43.6105 35.6569C42.2746 36.7252 41.4512 37.9673 41.1571 38.7788C40.6278 40.286 41.0395 40.965 41.8209 41.1224C42.1738 41.1969 42.6779 41.0313 43.0476 40.8739C43.5181 40.7249 44.0726 40.4682 44.602 40.0872C45.501 39.433 46.3664 38.5221 46.316 37.2883C46.2908 36.7252 46.1395 36.1703 45.9295 35.6321C47.0638 35.1683 48.5257 34.9116 50.391 35.1269C54.3904 35.5907 55.1802 38.0501 55.0289 39.0852C54.8777 40.1204 54.0375 40.6835 53.7602 40.8574C53.483 41.0313 53.3905 41.0892 53.4157 41.2134C53.4494 41.3956 53.5838 41.3873 53.819 41.3542C54.1467 41.2963 55.9196 40.5178 55.9952 38.6132C56.1212 36.1786 53.7686 33.5204 49.6096 33.5453ZM18.7572 43.7971C17.4296 45.2214 15.5812 45.7597 14.783 45.3042C13.926 44.8157 14.2621 42.7123 15.8921 41.2052C16.8835 40.286 18.1606 39.433 19.0092 38.9113C19.2025 38.7954 19.4881 38.6298 19.8326 38.4228C19.8914 38.3896 19.9251 38.3731 19.9251 38.3731L20.1267 38.2489C20.7233 40.4019 20.1519 42.2983 18.7572 43.7971ZM28.4196 37.3214C27.9574 38.431 26.9912 41.2714 26.4031 41.1141C25.8989 40.9816 25.5881 38.8285 26.3022 36.7003C26.6635 35.6321 27.4281 34.3568 27.8734 33.8599C28.596 33.065 29.3942 32.8 29.5874 33.1229C29.8311 33.5453 28.7052 36.6258 28.4196 37.3214ZM36.3931 41.081C36.1999 41.1803 36.015 41.2466 35.931 41.1969C35.8722 41.1638 36.015 41.0313 36.015 41.0313C36.015 41.0313 37.0149 39.9713 37.4098 39.491C37.6366 39.2095 37.9055 38.8782 38.1912 38.5056V38.6132C38.1912 39.8802 36.9477 40.7332 36.3931 41.081ZM42.5435 39.698C42.4006 39.5987 42.4258 39.2674 42.9047 38.2323C43.0896 37.8265 43.5265 37.1475 44.2743 36.4933C44.3583 36.7583 44.4171 37.015 44.4087 37.2551C44.4003 38.8534 43.2408 39.4496 42.5435 39.698Z" fill="white"/>
<defs>
<linearGradient id="paint0_linear_361_637" x1="0" y1="0" x2="74.5652" y2="47.369" gradientUnits="userSpaceOnUse">
<stop stop-color="#7758F9"/>
<stop offset="1" stop-color="#4F2ED2"/>
</linearGradient>
</defs>
</svg>
