<svg width="64" height="64" viewBox="0 0 64 64" fill="none" xmlns="http://www.w3.org/2000/svg">
<path d="M64 56V8C64 3.58172 60.4183 0 56 0H8C3.58172 0 0 3.58172 0 8V56C0 60.4183 3.58172 64 8 64H56C60.4183 64 64 60.4183 64 56Z" fill="url(#paint0_linear_361_607)"/>
<path d="M24.2344 38.7032L19.9844 39.1718C19.8802 38.2968 19.6094 37.651 19.1719 37.2344C18.7344 36.8178 18.1667 36.6094 17.4688 36.6094C16.5417 36.6094 15.7552 37.026 15.1094 37.8594C14.474 38.6928 14.0729 40.427 13.9062 43.0624C15 41.7708 16.3594 41.125 17.9844 41.125C19.8177 41.125 21.3854 41.823 22.6876 43.2188C24 44.6146 24.6562 46.4166 24.6562 48.625C24.6562 50.9688 23.9688 52.849 22.5938 54.2656C21.2188 55.6822 19.4531 56.3906 17.2969 56.3906C14.9844 56.3906 13.0833 55.4948 11.5938 53.7032C10.1042 51.901 9.35938 48.9532 9.35938 44.8594C9.35938 40.6614 10.1354 37.6354 11.6875 35.7812C13.2396 33.927 15.2552 33 17.7344 33C19.474 33 20.9114 33.4896 22.0468 34.4688C23.1928 35.4376 23.9218 36.849 24.2344 38.7032ZM14.2812 48.2812C14.2812 49.7084 14.6094 50.8124 15.2656 51.5938C15.9219 52.3646 16.6719 52.75 17.5156 52.75C18.3281 52.75 19.0052 52.4322 19.5469 51.7968C20.0886 51.1614 20.3594 50.1198 20.3594 48.6718C20.3594 47.1822 20.0678 46.0938 19.4844 45.4062C18.901 44.7084 18.1719 44.3594 17.2969 44.3594C16.4531 44.3594 15.7396 44.6928 15.1562 45.3594C14.5729 46.0156 14.2812 46.9896 14.2812 48.2812ZM35.7812 56V51.3906H26.4062V47.5468L36.3438 33H40.0312V47.5312H42.875V51.3906H40.0312V56H35.7812ZM35.7812 47.5312V39.7032L30.5156 47.5312H35.7812Z" fill="white"/>
<path d="M43.9559 21.3662H42.2295V18.5732H44.5145L45.2763 14.8281H42.2295V12.0225H45.8475L46.8505 7.07129H49.6943L48.6913 12.0225H51.4969L52.4745 7.07129H55.4199L54.4043 12.0225H56.1561V14.8281H53.8329L53.0713 18.5732H56.1561V21.3662H52.4999L51.4969 26.3174H48.6659L49.6435 21.3662H46.8251L45.8221 26.3174H42.9531L43.9559 21.3662ZM48.1327 14.8281L47.3837 18.5732H50.2021L50.9385 14.8281H48.1327Z" fill="white"/>
<defs>
<linearGradient id="paint0_linear_361_607" x1="0" y1="0" x2="74.5652" y2="47.369" gradientUnits="userSpaceOnUse">
<stop stop-color="#7758F9"/>
<stop offset="1" stop-color="#4F2ED2"/>
</linearGradient>
</defs>
</svg>
