<svg width="64" height="64" viewBox="0 0 64 64" fill="none" xmlns="http://www.w3.org/2000/svg">
<path d="M64 56V8C64 3.58172 60.4183 0 56 0H8C3.58172 0 0 3.58172 0 8V56C0 60.4183 3.58172 64 8 64H56C60.4183 64 64 60.4183 64 56Z" fill="url(#paint0_linear_361_768)"/>
<path d="M26.6666 44.0446C18.3333 46.5446 18.3333 39.878 15 39.0446M38.3334 49.0446V42.5946C38.3958 41.8 38.2884 41.001 38.0184 40.251C37.7482 39.501 37.3216 38.817 36.7666 38.2446C42 37.6614 47.5 35.678 47.5 26.578C47.4996 24.251 46.6044 22.0134 45 20.328C45.7598 18.2922 45.706 16.0419 44.85 14.0447C44.85 14.0447 42.8834 13.4613 38.3334 16.5113C34.5134 15.476 30.4866 15.476 26.6666 16.5113C22.1166 13.4613 20.15 14.0447 20.15 14.0447C19.294 16.0419 19.2402 18.2922 20 20.328C18.3835 22.0258 17.4875 24.2838 17.5 26.628C17.5 35.6614 23 37.6446 28.2334 38.2946C27.685 38.8612 27.2622 39.537 26.9922 40.2778C26.7222 41.0188 26.6114 41.808 26.6666 42.5946V49.0446" stroke="white" stroke-width="3" stroke-linecap="round" stroke-linejoin="round"/>
<defs>
<linearGradient id="paint0_linear_361_768" x1="0" y1="0" x2="74.5652" y2="47.369" gradientUnits="userSpaceOnUse">
<stop stop-color="#7758F9"/>
<stop offset="1" stop-color="#4F2ED2"/>
</linearGradient>
</defs>
</svg>
