<svg width="64" height="64" viewBox="0 0 64 64" fill="none" xmlns="http://www.w3.org/2000/svg">
<path d="M64 56V8C64 3.58172 60.4183 0 56 0H8C3.58172 0 0 3.58172 0 8V56C0 60.4183 3.58172 64 8 64H56C60.4183 64 64 60.4183 64 56Z" fill="url(#paint0_linear_361_631)"/>
<path d="M10.6231 23.6817H13.5039V32.7441C13.5039 33.9291 13.3997 34.8405 13.1914 35.4785C12.9115 36.3119 12.4037 36.9825 11.668 37.4903C10.9323 37.9915 9.96223 38.2423 8.75781 38.2423C7.34505 38.2423 6.25781 37.8483 5.49609 37.0605C4.73437 36.2663 4.35025 35.1043 4.34375 33.5743L7.06835 33.2617C7.10091 34.0821 7.22135 34.6615 7.42969 35.0001C7.74219 35.5143 8.21745 35.7715 8.85547 35.7715C9.49999 35.7715 9.95573 35.5893 10.2227 35.2247C10.4896 34.8535 10.6231 34.0885 10.6231 32.9297V23.6817ZM15.8574 33.3399L18.6699 33.0665C18.8391 34.0105 19.181 34.7039 19.6953 35.1465C20.2161 35.5893 20.9159 35.8105 21.7949 35.8105C22.7259 35.8105 23.4258 35.6153 23.8946 35.2247C24.3698 34.8275 24.6073 34.3653 24.6073 33.8379C24.6073 33.4995 24.5065 33.2129 24.3047 32.9785C24.1093 32.7377 23.7644 32.5293 23.2696 32.3535C22.931 32.2363 22.1595 32.0281 20.9552 31.7285C19.4056 31.3445 18.3184 30.8725 17.6934 30.3125C16.8144 29.5247 16.3749 28.5645 16.3749 27.4317C16.3749 26.7025 16.5801 26.0221 16.9901 25.3907C17.4069 24.7527 18.0026 24.2677 18.7774 23.9357C19.5586 23.6035 20.4994 23.4375 21.5996 23.4375C23.3966 23.4375 24.7474 23.8315 25.6524 24.6191C26.5638 25.4069 27.0424 26.4583 27.088 27.7735L24.1973 27.9005C24.0735 27.1647 23.8065 26.6375 23.3965 26.3185C22.9927 25.9929 22.3842 25.8301 21.5704 25.8301C20.7306 25.8301 20.073 26.0027 19.5978 26.3477C19.2918 26.5691 19.1388 26.8653 19.1388 27.2363C19.1388 27.5749 19.282 27.8647 19.5684 28.1055C19.933 28.4115 20.8184 28.7305 22.2246 29.0625C23.631 29.3945 24.6693 29.7397 25.3397 30.0977C26.0169 30.4493 26.5444 30.9343 26.922 31.5527C27.306 32.1647 27.498 32.9233 27.498 33.8281C27.498 34.6485 27.2701 35.4167 26.8144 36.1329C26.3587 36.8491 25.7142 37.3829 24.881 37.7345C24.0476 38.0795 23.0091 38.2521 21.7655 38.2521C19.9557 38.2521 18.5658 37.8353 17.5957 37.0021C16.6256 36.1621 16.0461 34.9415 15.8574 33.3399ZM29.3438 30.9277C29.3438 29.4695 29.5617 28.2455 29.9979 27.2559C30.3235 26.5267 30.7663 25.8725 31.3261 25.2931C31.8925 24.7135 32.5111 24.2839 33.1815 24.0039C34.0735 23.6263 35.1021 23.4375 36.2675 23.4375C38.3769 23.4375 40.0631 24.0919 41.3261 25.4005C42.5957 26.7091 43.2305 28.5287 43.2305 30.8595C43.2305 33.1707 42.6021 34.9805 41.3457 36.2891C40.0891 37.5911 38.4095 38.2423 36.3065 38.2423C34.1777 38.2423 32.4849 37.5945 31.2285 36.2989C29.972 34.9967 29.3438 33.2065 29.3438 30.9277ZM32.3223 30.8301C32.3223 32.4513 32.6966 33.6817 33.4454 34.5215C34.194 35.3549 35.1445 35.7715 36.2969 35.7715C37.4491 35.7715 38.3931 35.3581 39.1289 34.5313C39.8711 33.6979 40.2421 32.4513 40.2421 30.7911C40.2421 29.1505 39.881 27.9265 39.1581 27.1191C38.4422 26.3119 37.4883 25.9083 36.2969 25.9083C35.1055 25.9083 34.1452 26.3185 33.416 27.1387C32.6868 27.9525 32.3223 29.1829 32.3223 30.8301ZM45.5253 37.9981V23.6817H48.3379L54.1973 33.2423V23.6817H56.8827V37.9981H53.9823L48.2109 28.6621V37.9981H45.5253Z" fill="white"/>
<defs>
<linearGradient id="paint0_linear_361_631" x1="0" y1="0" x2="74.5652" y2="47.369" gradientUnits="userSpaceOnUse">
<stop stop-color="#7758F9"/>
<stop offset="1" stop-color="#4F2ED2"/>
</linearGradient>
</defs>
</svg>
