<svg width="64" height="64" viewBox="0 0 64 64" fill="none" xmlns="http://www.w3.org/2000/svg">
<path d="M64 56V8C64 3.58172 60.4183 0 56 0L8 0C3.58172 0 0 3.58172 0 8V56C0 60.4183 3.58172 64 8 64H56C60.4183 64 64 60.4183 64 56Z" fill="url(#paint0_linear_361_694)"/>
<path d="M16 53L19.9655 49.2824C20.7348 48.5612 21.932 48.5612 22.7013 49.2824L25.2987 51.7176C26.068 52.4388 27.2652 52.4388 28.0345 51.7176L30.6321 49.2824C31.4014 48.5611 32.5986 48.5611 33.3679 49.2824L35.9655 51.7176C36.7348 52.4388 37.932 52.4388 38.7013 51.7176L41.2987 49.2824C42.068 48.5612 43.2652 48.5612 44.0345 49.2824L48 53" stroke="white" stroke-width="3"/>
<path d="M10.3795 27.39C9.51052 26.9236 8.67969 26.223 8.67969 25.2368V25.1327C8.67969 24.2054 9.45717 23.5629 10.291 23.1572C10.6523 22.9814 10.9648 22.6886 11.2285 22.2784C11.4922 21.8584 11.6729 21.336 11.7705 20.711C11.8486 20.2422 11.8877 19.4268 11.8877 18.2647C11.8877 16.3701 11.9756 15.0518 12.1514 14.3096C12.3271 13.5576 12.6445 12.957 13.1035 12.5078C13.5625 12.0488 14.2314 11.6875 15.1104 11.4238C15.7061 11.2481 16.6436 11.1602 17.9229 11.1602H18.6992V14.6611C17.6152 14.6611 16.917 14.7246 16.6045 14.8516C16.3018 14.9688 16.0771 15.1543 15.9307 15.4082C15.7842 15.6523 15.7109 16.0772 15.7109 16.6826C15.7109 17.2979 15.667 18.4648 15.5791 20.1836C15.5303 21.1504 15.4033 21.9366 15.1982 22.542C14.9932 23.1378 14.7295 23.6308 14.4072 24.0216C14.0947 24.4122 13.6113 24.8174 12.957 25.2374C13.5332 25.5694 14.002 25.96 14.3633 26.4092C14.7344 26.8486 15.0176 27.3858 15.2129 28.0206C15.4082 28.6552 15.5352 29.505 15.5938 30.5694C15.6621 32.1904 15.6963 33.2256 15.6963 33.6748C15.6963 34.3194 15.7744 34.7686 15.9307 35.0224C16.0869 35.2764 16.3213 35.4668 16.6338 35.5938C16.9561 35.7304 17.6445 35.7988 18.6992 35.7988V39.3144H17.9229C16.6045 39.3144 15.5938 39.207 14.8906 38.9922C14.1875 38.7872 13.5918 38.4404 13.1035 37.9522C12.625 37.4638 12.3027 36.8584 12.1367 36.1358C11.9707 35.4228 11.8877 34.295 11.8877 32.752C11.8877 30.9552 11.8096 29.7882 11.6533 29.251C11.4385 28.4698 11.1113 27.9132 10.6719 27.581C10.5842 27.5112 10.4867 27.4476 10.3795 27.39ZM23.7017 33.001C22.5651 33.001 21.6436 32.0795 21.6436 30.9429C21.6436 29.8062 22.5651 28.8848 23.7017 28.8848C24.8384 28.8848 25.7598 29.8062 25.7598 30.9429C25.7598 32.0795 24.8384 33.001 23.7017 33.001ZM32.0513 33.001C30.9147 33.001 29.9932 32.0795 29.9932 30.9429C29.9932 29.8062 30.9147 28.8848 32.0513 28.8848C33.188 28.8848 34.1094 29.8062 34.1094 30.9429C34.1094 32.0795 33.188 33.001 32.0513 33.001ZM40.4009 33.001C39.2643 33.001 38.3428 32.0795 38.3428 30.9429C38.3428 29.8062 39.2643 28.8848 40.4009 28.8848C41.5376 28.8848 42.459 29.8062 42.459 30.9429C42.459 32.0795 41.5376 33.001 40.4009 33.001ZM55.2178 25.342C55.2178 26.2693 54.4402 26.9118 53.6064 27.3174C53.2452 27.4932 52.9326 27.791 52.669 28.211C52.415 28.6212 52.2344 29.1386 52.127 29.7636C52.0488 30.2324 52.0098 31.043 52.0098 32.1954C52.0098 34.0898 51.9218 35.4132 51.746 36.165C51.58 36.917 51.2676 37.5176 50.8086 37.9668C50.3496 38.4258 49.6758 38.7872 48.7872 39.0508C48.1914 39.2266 47.254 39.3144 45.9746 39.3144H45.1982V35.7988C46.2432 35.7988 46.9268 35.7304 47.249 35.5938C47.5712 35.4668 47.8056 35.2764 47.9522 35.0224C48.1084 34.7784 48.1866 34.3584 48.1866 33.7628C48.1962 33.167 48.2402 32.0294 48.3184 30.3496C48.3672 29.334 48.499 28.5234 48.7138 27.918C48.9288 27.3028 49.212 26.7852 49.5634 26.3652C49.9248 25.9356 50.3838 25.5596 50.9404 25.2374C50.2178 24.7686 49.6904 24.3096 49.3584 23.8604C48.8994 23.2158 48.587 22.3956 48.4208 21.3994C48.3134 20.7158 48.2354 19.2119 48.1866 16.8877C48.1768 16.1553 48.1084 15.667 47.9814 15.4229C47.8642 15.1787 47.6446 14.9932 47.3222 14.8662C47.0098 14.7295 46.3018 14.6611 45.1982 14.6611V11.1602H45.9746C47.293 11.1602 48.3038 11.2627 49.0068 11.4678C49.71 11.6729 50.3008 12.0244 50.7792 12.5225C51.2578 13.0107 51.58 13.6162 51.746 14.3389C51.9218 15.0518 52.0098 16.1797 52.0098 17.7227C52.0098 19.5098 52.083 20.6768 52.2294 21.2236C52.4444 22.005 52.7714 22.5664 53.211 22.9082C53.3023 22.9771 53.4034 23.04 53.5145 23.0967C54.3926 23.5453 55.2178 24.2515 55.2178 25.2375V25.342Z" fill="white"/>
<defs>
<linearGradient id="paint0_linear_361_694" x1="0" y1="0" x2="74.5652" y2="47.369" gradientUnits="userSpaceOnUse">
<stop stop-color="#7758F9"/>
<stop offset="1" stop-color="#4F2ED2"/>
</linearGradient>
</defs>
</svg>
