<svg width="64" height="64" viewBox="0 0 64 64" fill="none" xmlns="http://www.w3.org/2000/svg">
<path d="M64 56V8C64 3.58172 60.4183 0 56 0H8C3.58172 0 0 3.58172 0 8V56C0 60.4183 3.58172 64 8 64H56C60.4183 64 64 60.4183 64 56Z" fill="url(#paint0_linear_361_710)"/>
<g clip-path="url(#clip0_361_710)">
<path fill-rule="evenodd" clip-rule="evenodd" d="M15 15.3391C15 12.948 16.9393 11.0001 19.3218 11.0001L38.3563 11L38.3419 11.0013C38.3419 11.0013 39.3094 10.9587 40.248 11.3629C41.0452 11.7063 41.5829 12.2202 41.5829 12.2202L41.5934 12.2307L47.892 18.4315L47.8959 18.4369C47.8959 18.4369 48.4261 18.9462 48.7514 19.678C49.0984 20.4588 49.0304 21.2611 49.0304 21.2611V48.661C49.0304 51.0522 47.0911 53 44.7087 53H19.3218C16.9393 53 15 51.0521 15 48.661V15.3391ZM23.484 27.782H20.8741V38.3609H22.6192V34.2301H23.5226C24.5316 34.2301 25.2781 34.119 25.7619 33.8968C26.251 33.6747 26.6397 33.313 26.9279 32.8118C27.2162 32.3107 27.3603 31.7113 27.3603 31.0138C27.3603 30.2543 27.1827 29.6059 26.8276 29.0686C26.4723 28.526 26.0348 28.1773 25.5148 28.0223C24.9949 27.8621 24.318 27.782 23.484 27.782ZM22.6192 32.8273V29.1383L23.484 29.1383C23.9885 29.1383 24.3566 29.1745 24.5883 29.2468C24.825 29.314 25.0413 29.5 25.2369 29.8048C25.4325 30.1045 25.5303 30.4971 25.5303 30.9828C25.5303 31.6338 25.381 32.104 25.0824 32.3934C24.789 32.6827 24.2562 32.8273 23.484 32.8273H22.6192ZM28.6963 27.782H31.0669C32.2148 27.782 33.1311 27.9861 33.8157 28.3943C34.5056 28.8025 35.0255 29.4095 35.3755 30.2156C35.7307 31.0216 35.9084 31.9154 35.9084 32.8971C35.9084 33.9305 35.7488 34.8527 35.4296 35.6639C35.1156 36.4699 34.6317 37.1209 33.9779 37.6169C33.3293 38.1129 32.4027 38.3609 31.1981 38.3609H28.6963V27.782ZM30.4414 29.1848V36.9582H31.1672C32.1813 36.9582 32.9175 36.6068 33.3756 35.9041C33.8338 35.1963 34.0629 34.2534 34.0629 33.0753C34.0629 30.4817 33.0977 29.1848 31.1672 29.1848H30.4414ZM43.4371 27.782H37.5841V38.3609H39.3292V33.7496H42.6187V32.3469H39.3292V29.1848H43.4371V27.782Z" fill="white"/>
</g>
<defs>
<linearGradient id="paint0_linear_361_710" x1="0" y1="0" x2="74.5652" y2="47.369" gradientUnits="userSpaceOnUse">
<stop stop-color="#7758F9"/>
<stop offset="1" stop-color="#4F2ED2"/>
</linearGradient>
<clipPath id="clip0_361_710">
<rect width="34" height="42" fill="white" transform="translate(15 11)"/>
</clipPath>
</defs>
</svg>
