<svg width="64" height="64" viewBox="0 0 64 64" fill="none" xmlns="http://www.w3.org/2000/svg">
<path d="M64 56V8C64 3.58172 60.4183 0 56 0H8C3.58172 0 0 3.58172 0 8V56C0 60.4183 3.58172 64 8 64H56C60.4183 64 64 60.4183 64 56Z" fill="url(#paint0_linear_361_775)"/>
<path d="M35.5022 23.1727C35.1968 23.4843 35.0258 23.9031 35.0258 24.3393C35.0258 24.7757 35.1968 25.1945 35.5022 25.5061L38.169 28.1727C38.4804 28.4781 38.8994 28.6491 39.3356 28.6491C39.7718 28.6491 40.1906 28.4781 40.5022 28.1727L46.7856 21.8893C47.6236 23.7413 47.8774 25.8047 47.513 27.8047C47.1486 29.8045 46.1834 31.6457 44.746 33.0831C43.3086 34.5205 41.4674 35.4857 39.4674 35.8501C37.4676 36.2145 35.4042 35.9607 33.5522 35.1227L22.0356 46.6393C21.3726 47.3025 20.4732 47.6749 19.5356 47.6749C18.5979 47.6749 17.6986 47.3025 17.0355 46.6393C16.3725 45.9763 16 45.0771 16 44.1393C16 43.2017 16.3725 42.3025 17.0355 41.6393L28.5522 30.1227C27.7142 28.2707 27.4604 26.2073 27.8248 24.2075C28.1892 22.2077 29.1544 20.3663 30.5918 18.9289C32.0292 17.4916 33.8704 16.5264 35.8704 16.162C37.8702 15.7976 39.9336 16.0514 41.7856 16.8894L35.519 23.1561L35.5022 23.1727Z" stroke="white" stroke-width="3" stroke-linecap="round" stroke-linejoin="round"/>
<defs>
<linearGradient id="paint0_linear_361_775" x1="0" y1="0" x2="74.5652" y2="47.369" gradientUnits="userSpaceOnUse">
<stop stop-color="#7758F9"/>
<stop offset="1" stop-color="#4F2ED2"/>
</linearGradient>
</defs>
</svg>
