<svg width="64" height="64" viewBox="0 0 64 64" fill="none" xmlns="http://www.w3.org/2000/svg">
<path d="M64 56V8C64 3.58172 60.4183 0 56 0H8C3.58172 0 0 3.58172 0 8V56C0 60.4183 3.58172 64 8 64H56C60.4183 64 64 60.4183 64 56Z" fill="#F6F6F6"/>
<path d="M12.6022 17.4141H51.3908C52.7093 17.4141 53.783 18.4619 53.783 19.7486V44.658C53.783 45.9447 52.7093 46.9926 51.3908 46.9926H12.6022C11.2837 47.0003 10.21 45.9524 10.21 44.6657V19.7486C10.21 18.4619 11.2837 17.4141 12.6022 17.4141Z" fill="#B22234"/>
<path d="M10.2258 19.5166H53.783C53.7909 19.5936 53.7988 19.6707 53.7988 19.7554V22.0206H10.21V19.7477C10.21 19.6707 10.2179 19.5936 10.2258 19.5166ZM53.7909 24.0932V26.5896H10.21V24.0932H53.7909ZM53.7909 28.6698V31.1662H10.21V28.6698H53.7909V28.6698ZM53.7909 33.2464V35.7428H10.21V33.2464H53.7909V33.2464ZM53.7909 37.8231V40.3194H10.21V37.8231H53.7909V37.8231ZM53.7909 42.3997V44.6572C53.7909 44.7342 53.783 44.819 53.7751 44.896H10.2258C10.2179 44.8267 10.21 44.7419 10.21 44.6649V42.4074H53.7909V42.3997Z" fill="white"/>
<path d="M26.6318 17.4141V33.3475H10.21V19.7486C10.21 18.4619 11.2837 17.4141 12.6022 17.4141H26.6318Z" fill="#3C3B6E"/>
<path d="M11.1822 19.6172L11.7269 21.2737L10.29 20.249H12.0743L10.6295 21.2737L11.1822 19.6172Z" fill="white"/>
<path d="M11.1822 22.8232L11.7269 24.4798L10.29 23.455H12.0743L10.6295 24.4798L11.1822 22.8232Z" fill="white"/>
<path d="M11.1822 26.0283L11.7269 27.6848L10.29 26.6601H12.0743L10.6295 27.6848L11.1822 26.0283Z" fill="white"/>
<path d="M11.1822 29.2334L11.7269 30.8899L10.29 29.8652H12.0743L10.6295 30.8899L11.1822 29.2334Z" fill="white"/>
<path d="M13.108 18.0146L13.6606 19.6712L12.2158 18.6464H14.008L12.5553 19.6712L13.108 18.0146Z" fill="white"/>
<path d="M13.108 21.2197L13.6606 22.8762L12.2158 21.8515H14.008L12.5553 22.8762L13.108 21.2197Z" fill="white"/>
<path d="M13.108 24.4258L13.6606 26.0823L12.2158 25.0576H14.008L12.5553 26.0823L13.108 24.4258Z" fill="white"/>
<path d="M13.108 27.6309L13.6606 29.2874L12.2158 28.2626H14.008L12.5553 29.2874L13.108 27.6309Z" fill="white"/>
<path d="M13.108 30.8359L13.6606 32.4925L12.2158 31.4677H14.008L12.5553 32.4925L13.108 30.8359Z" fill="white"/>
<path d="M15.0416 19.6172L15.5942 21.2737L14.1494 20.249H15.9337L14.4889 21.2737L15.0416 19.6172Z" fill="white"/>
<path d="M15.0416 22.8232L15.5942 24.4798L14.1494 23.455H15.9337L14.4889 24.4798L15.0416 22.8232Z" fill="white"/>
<path d="M15.0416 26.0283L15.5942 27.6848L14.1494 26.6601H15.9337L14.4889 27.6848L15.0416 26.0283Z" fill="white"/>
<path d="M15.0416 29.2334L15.5942 30.8899L14.1494 29.8652H15.9337L14.4889 30.8899L15.0416 29.2334Z" fill="white"/>
<path d="M16.9752 18.0146L17.5199 19.6712L16.083 18.6464H17.8673L16.4225 19.6712L16.9752 18.0146Z" fill="white"/>
<path d="M16.9752 21.2197L17.5199 22.8762L16.083 21.8515H17.8673L16.4225 22.8762L16.9752 21.2197Z" fill="white"/>
<path d="M16.9752 24.4258L17.5199 26.0823L16.083 25.0576H17.8673L16.4225 26.0823L16.9752 24.4258Z" fill="white"/>
<path d="M16.9752 27.6309L17.5199 29.2874L16.083 28.2626H17.8673L16.4225 29.2874L16.9752 27.6309Z" fill="white"/>
<path d="M16.9752 30.8359L17.5199 32.4925L16.083 31.4677H17.8673L16.4225 32.4925L16.9752 30.8359Z" fill="white"/>
<path d="M18.9029 19.6172L19.4555 21.2737L18.0107 20.249H19.795L18.3502 21.2737L18.9029 19.6172Z" fill="white"/>
<path d="M18.9029 22.8232L19.4555 24.4798L18.0107 23.455H19.795L18.3502 24.4798L18.9029 22.8232Z" fill="white"/>
<path d="M18.9029 26.0283L19.4555 27.6848L18.0107 26.6601H19.795L18.3502 27.6848L18.9029 26.0283Z" fill="white"/>
<path d="M18.9029 29.2334L19.4555 30.8899L18.0107 29.8652H19.795L18.3502 30.8899L18.9029 29.2334Z" fill="white"/>
<path d="M20.8365 18.0146L21.3891 19.6712L19.9443 18.6464H21.7286L20.2838 19.6712L20.8365 18.0146Z" fill="white"/>
<path d="M20.8365 21.2197L21.3891 22.8762L19.9443 21.8515H21.7286L20.2838 22.8762L20.8365 21.2197Z" fill="white"/>
<path d="M20.8365 24.4258L21.3891 26.0823L19.9443 25.0576H21.7286L20.2838 26.0823L20.8365 24.4258Z" fill="white"/>
<path d="M20.8365 27.6309L21.3891 29.2874L19.9443 28.2626H21.7286L20.2838 29.2874L20.8365 27.6309Z" fill="white"/>
<path d="M20.8365 30.8359L21.3891 32.4925L19.9443 31.4677H21.7286L20.2838 32.4925L20.8365 30.8359Z" fill="white"/>
<path d="M22.7642 19.6172L23.3169 21.2737L21.8721 20.249H23.6564L22.2195 21.2737L22.7642 19.6172Z" fill="white"/>
<path d="M22.7642 22.8232L23.3169 24.4798L21.8721 23.455H23.6564L22.2195 24.4798L22.7642 22.8232Z" fill="white"/>
<path d="M22.7642 26.0283L23.3169 27.6848L21.8721 26.6601H23.6564L22.2195 27.6848L22.7642 26.0283Z" fill="white"/>
<path d="M22.7642 29.2334L23.3169 30.8899L21.8721 29.8652H23.6564L22.2195 30.8899L22.7642 29.2334Z" fill="white"/>
<path d="M24.6978 18.0146L25.2505 19.6712L23.8057 18.6464H25.59L24.1452 19.6712L24.6978 18.0146Z" fill="white"/>
<path d="M24.6978 21.2197L25.2505 22.8762L23.8057 21.8515H25.59L24.1452 22.8762L24.6978 21.2197Z" fill="white"/>
<path d="M24.6978 24.4258L25.2505 26.0823L23.8057 25.0576H25.59L24.1452 26.0823L24.6978 24.4258Z" fill="white"/>
<path d="M24.6978 27.6309L25.2505 29.2874L23.8057 28.2626H25.59L24.1452 29.2874L24.6978 27.6309Z" fill="white"/>
<path d="M24.6978 30.8359L25.2505 32.4925L23.8057 31.4677H25.59L24.1452 32.4925L24.6978 30.8359Z" fill="white"/>
</svg>
