<?xml version="1.0" standalone="no"?>
<!DOCTYPE svg PUBLIC "-//W3C//DTD SVG 20010904//EN"
 "http://www.w3.org/TR/2001/REC-SVG-20010904/DTD/svg10.dtd">
<svg version="1.0" xmlns="http://www.w3.org/2000/svg"
 width="800.000000pt" height="800.000000pt" viewBox="0 0 800.000000 800.000000"
 preserveAspectRatio="xMidYMid meet">
<metadata>
Created by potrace 1.14, written by Peter Selinger 2001-2017
</metadata>
<g transform="translate(0.000000,800.000000) scale(0.100000,-0.100000)"
fill="#000000" stroke="none">
<path d="M7005 7975 c-38 -13 -71 -24 -73 -24 -1 0 -28 -8 -60 -17 -31 -10
-59 -18 -62 -19 -3 0 -36 -11 -75 -22 -376 -117 -501 -155 -510 -157 -5 -1
-14 -4 -20 -8 -5 -3 -26 -9 -45 -12 -19 -4 -44 -11 -55 -16 -11 -5 -60 -20
-110 -35 -49 -14 -97 -29 -105 -32 -8 -3 -21 -7 -28 -9 -7 -1 -58 -17 -113
-34 -55 -17 -108 -33 -117 -36 -30 -7 -276 -84 -292 -90 -8 -4 -22 -8 -30 -10
-8 -2 -39 -10 -67 -19 -29 -9 -58 -18 -65 -19 -7 -2 -20 -6 -28 -9 -17 -6 -90
-30 -105 -33 -5 -2 -20 -5 -33 -8 -12 -3 -27 -8 -32 -11 -5 -3 -18 -8 -27 -10
-57 -13 -109 -29 -113 -34 -3 -3 -9 -7 -15 -7 -5 -1 -21 -4 -35 -7 l-25 -6 1
242 c0 216 -2 247 -18 287 -11 25 -26 53 -35 62 -28 31 -97 60 -143 61 -54 1
-59 -1 -129 -35 -31 -16 -61 -28 -67 -28 -7 0 -14 -3 -16 -7 -4 -9 -614 -313
-628 -313 -6 0 -10 -4 -10 -10 0 -5 -9 -10 -20 -10 -11 0 -20 -4 -20 -10 0 -5
-9 -10 -20 -10 -11 0 -20 -4 -20 -10 0 -5 -6 -10 -13 -10 -18 0 -67 -24 -67
-32 0 -5 -5 -8 -11 -8 -16 0 -182 -83 -191 -95 -4 -5 -8 -7 -8 -3 0 5 -164
-75 -250 -122 -14 -8 -27 -15 -30 -15 -8 -1 -505 -249 -510 -255 -3 -3 -14 -7
-25 -8 -11 -2 -22 -7 -25 -11 -6 -9 -357 -182 -366 -180 -4 0 -10 -3 -13 -8
-3 -4 -78 -43 -166 -86 -88 -43 -167 -83 -175 -87 -30 -17 -141 -69 -147 -69
-3 1 -9 -3 -12 -8 -3 -4 -78 -43 -166 -87 -698 -343 -706 -348 -756 -451 l-24
-50 0 -1915 c0 -1053 3 -1927 7 -1942 14 -57 97 -168 125 -168 7 0 13 -4 13
-9 0 -5 10 -11 23 -15 13 -3 56 -24 96 -46 41 -22 78 -40 83 -40 4 0 25 -11
46 -24 20 -12 42 -24 47 -26 6 -1 82 -39 170 -83 88 -45 162 -81 165 -82 3 0
322 -159 710 -353 388 -194 711 -352 717 -352 6 0 13 -3 15 -8 4 -10 290 -152
306 -152 7 0 12 -3 12 -7 0 -9 48 -33 66 -33 7 0 14 -4 16 -8 3 -9 92 -52 107
-52 5 0 11 -3 13 -7 4 -10 1029 -520 1079 -538 84 -30 191 13 238 95 25 45 25
47 26 292 1 136 4 250 6 253 5 5 49 -7 89 -23 8 -3 20 -7 25 -7 6 -1 17 -5 25
-8 23 -9 84 -27 90 -27 3 1 31 -8 63 -19 31 -11 57 -17 57 -14 0 3 6 1 13 -5
6 -6 37 -17 67 -25 30 -9 84 -24 120 -35 36 -11 121 -37 190 -57 69 -21 134
-41 145 -45 11 -5 67 -23 125 -40 58 -17 123 -37 145 -44 33 -11 113 -35 135
-41 33 -9 99 -29 115 -36 11 -4 58 -19 105 -33 47 -14 182 -55 300 -91 118
-37 222 -68 230 -70 8 -2 60 -18 115 -36 155 -49 204 -56 258 -35 46 17 97 57
97 76 0 5 5 10 10 10 6 0 10 8 10 18 0 10 5 23 10 28 7 7 9 1289 8 3865 l-3
3854 -25 35 c-33 48 -41 55 -80 75 -55 28 -125 28 -205 0z"/>
</g>
</svg>
